<svg xmlns="http://www.w3.org/2000/svg" viewBox="0 0 695.41 227.81"><defs><style>.cls-1{fill:#08a0f4;}.cls-2{fill:#fff;}.cls-3{fill:#11d3d3;}</style></defs><g id="Layer_2" data-name="Layer 2"><g id="Content"><polygon class="cls-1" points="97.93 75.45 130.58 56.6 163.22 75.45 195.87 56.6 163.22 37.76 130.58 18.91 97.93 0.06 65.29 18.91 97.93 37.76 65.29 56.6 32.64 75.45 65.29 94.3 97.93 75.45"/><polygon class="cls-2" points="65.29 131.99 32.64 113.15 32.64 75.45 0 56.6 0 94.3 0 131.99 0 169.69 32.64 188.53 32.64 150.84 65.29 169.69 97.93 188.53 97.93 150.84 65.29 131.99"/><polygon class="cls-3" points="163.22 113.15 163.22 75.45 130.58 94.3 130.58 131.99 130.58 169.69 97.93 188.53 97.93 226.23 130.58 207.38 163.22 188.53 195.87 169.69 195.87 131.99 163.22 150.84 163.22 113.15"/><path class="cls-2" d="M300,90.94a10.07,10.07,0,0,1-4.7-3.76c-1.29-1.92-1.8-4.33-1.8-8.6V46.14h22.91V31.57H293.52V6.89l-16,9.26V79c0,7.19,2.18,13.85,5.93,18.4,4.61,5.59,11.6,8.76,19.87,8.76,8.91,0,15.34-3.34,22-10.25L316,85.72C310.66,90.61,305.61,93.15,300,90.94Z"/><path class="cls-2" d="M670.15,90.94a10.1,10.1,0,0,1-4.71-3.76c-1.28-1.92-1.8-4.33-1.8-8.6V46.14h22.92V31.57H663.64V6.89l-16,9.26V79c0,7.19,2.17,13.85,5.93,18.4,4.61,5.59,11.6,8.76,19.87,8.76,8.91,0,15.34-3.34,22-10.25l-9.33-10.14C680.79,90.61,675.74,93.15,670.15,90.94Z"/><path class="cls-2" d="M600.42,30C589,30,581.21,35.21,576,43.69V31.63H560v72.89h16V66.75c0-14,6.89-22.4,19.75-22.4,11,0,15.9,6,15.9,17.23v42.94h16v-46C627.72,40.78,616.85,30,600.42,30Z"/><path class="cls-2" d="M395.65,44A29.45,29.45,0,0,0,370.05,30c-20,0-34.47,15.79-34.47,38.07s14.14,38.07,34.61,38.07a29.15,29.15,0,0,0,25.46-13.8v12.21h16v-73h-16ZM373.37,91.78c-13.31,0-21.75-9.68-21.75-23.74s8.23-23.74,21.75-23.74c12.73,0,22.42,9.81,22.42,23.74S386.1,91.78,373.37,91.78Z"/><polygon class="cls-2" points="339.61 167.84 339.61 153.27 279.33 153.27 279.33 167.84 317.51 167.84 277.48 211.5 277.48 226.15 341.46 226.15 341.46 211.27 299.43 211.27 339.61 167.84"/><path class="cls-2" d="M392,151.75c-20.81,0-37.77,16-37.77,38,0,21.73,16.7,38,37.77,38s37.77-16.17,37.77-38S413,151.75,392,151.75Zm0,61.75c-12.2,0-21.73-9.68-21.73-23.72S380,166.06,392,166.06s21.73,9.67,21.73,23.72S404.22,213.5,392,213.5Z"/><path class="cls-2" d="M480.93,151.75c-20.8,0-37.76,16-37.76,38,0,21.73,16.69,38,37.76,38s37.77-16.17,37.77-38S501.87,151.75,480.93,151.75Zm0,61.75c-12.19,0-21.73-9.68-21.73-23.72s9.66-23.72,21.73-23.72,21.73,9.67,21.73,23.72S493.13,213.5,480.93,213.5Z"/><path class="cls-2" d="M621.63,151.82c-11.52,0-19.73,5.82-24.63,15.22-3.57-9.79-12.33-15.22-23.45-15.22-10.46,0-17.61,4.9-22.64,13.24V153.41h-16v72.81h16V188.49c0-13.24,6-22.38,17.74-22.38,10.06,0,14.43,5.7,14.43,16.55v43.56h16L599,188.49c0-13.24,5.14-22.38,16.92-22.38,10.06,0,15.38,5.7,15.38,16.55v43.56h16V179.49C647.33,162.14,637,151.82,621.63,151.82Z"/><rect class="cls-2" x="433.35" width="16.04" height="104.44"/><path class="cls-2" d="M531.42,39.79a29.92,29.92,0,0,0-11-7.34A41.36,41.36,0,0,0,506.54,30c-21.65-.65-38.07,13-38.07,38.06s18.78,38.08,38.67,38.08q20.24,0,30.87-14.39l-12-9.59A21.31,21.31,0,0,1,518.38,89,24,24,0,0,1,507,91.42c-13,0-21-9-21.67-17.68h55.84c.07-1,.15-3.38.15-4.8a50.08,50.08,0,0,0-2.62-17A34,34,0,0,0,531.42,39.79Zm-46.1,21.06c.89-10.32,7.77-17.39,19.92-17.39,10.78,0,18.17,7.07,19.06,17.39Z"/></g></g></svg>