<svg xmlns="http://www.w3.org/2000/svg" viewBox="0 0 1162.64 226.17"><defs><style>.cls-1{fill:#08a0f4;}</style></defs><g id="Layer_2" data-name="Layer 2"><g id="Content"><polygon class="cls-1" points="97.93 75.39 130.58 56.54 163.22 75.39 195.87 56.54 163.22 37.7 130.58 18.85 97.93 0 65.29 18.85 97.93 37.7 65.29 56.54 32.64 75.39 65.29 94.24 97.93 75.39"/><polygon class="cls-1" points="65.29 131.93 32.64 113.08 32.64 75.39 0 56.54 0 94.24 0 131.93 0 169.63 32.64 188.47 32.64 150.78 65.29 169.63 97.93 188.47 97.93 150.78 65.29 131.93"/><polygon class="cls-1" points="163.22 113.08 163.22 75.39 130.58 94.24 130.58 131.93 130.58 169.63 97.93 188.47 97.93 226.17 130.58 207.32 163.22 188.47 195.87 169.63 195.87 131.93 163.22 150.78 163.22 113.08"/><path d="M302.13,148.45a11,11,0,0,1-5.15-4.11c-1.4-2.1-2-4.74-2-9.4V99.47h25.06V83.54H295v-27L277.48,66.68v68.67c0,7.85,2.38,15.13,6.49,20.11,5,6.11,12.68,9.57,21.72,9.57,9.74,0,16.77-3.65,24.06-11.2l-10.2-11.08C313.76,148.09,308.24,150.87,302.13,148.45Z"/><path d="M717.82,148.45a11,11,0,0,1-5.15-4.11c-1.4-2.1-2-4.74-2-9.4V99.47h25V83.54h-25v-27L693.17,66.68v68.67c0,7.85,2.38,15.13,6.49,20.11,5,6.11,12.68,9.57,21.72,9.57,9.74,0,16.77-3.65,24.06-11.2l-10.2-11.08C729.45,148.09,723.93,150.87,717.82,148.45Z"/><path d="M639.58,81.87c-12.46,0-21,5.65-26.66,14.92V83.61H595.38v79.68h17.54V122c0-15.36,7.54-24.48,21.59-24.48,12,0,17.39,6.52,17.39,18.83v46.94h17.53V113C669.43,93.61,657.55,81.87,639.58,81.87Z"/><path d="M407.69,97.16a32.21,32.21,0,0,0-28-15.37c-21.85,0-37.7,17.26-37.7,41.62S357.47,165,379.84,165c12.47,0,22.05-5.94,27.85-15.08v13.34h17.53V83.53H407.69Zm-24.37,52.21c-14.55,0-23.78-10.59-23.78-26,0-15.22,9-26,23.78-26,13.93,0,24.51,10.74,24.51,26C407.83,138.78,397.25,149.37,383.32,149.37Z"/><polygon points="826.19 98.95 826.19 83.02 760.29 83.02 760.29 98.95 802.03 98.95 758.26 146.68 758.26 162.7 828.22 162.7 828.22 146.43 782.26 146.43 826.19 98.95"/><path d="M883.5,81.35c-22.75,0-41.3,17.53-41.3,41.58,0,23.76,18.26,41.59,41.3,41.59s41.29-17.68,41.29-41.59S906.39,81.35,883.5,81.35Zm0,67.52c-13.34,0-23.76-10.58-23.76-25.94S870.3,97,883.5,97s23.75,10.57,23.75,25.93S896.83,148.87,883.5,148.87Z"/><path d="M980.71,81.35c-22.75,0-41.29,17.53-41.29,41.58,0,23.76,18.25,41.59,41.29,41.59S1022,146.84,1022,122.93,1003.6,81.35,980.71,81.35Zm0,67.52c-13.34,0-23.76-10.58-23.76-25.94S967.51,97,980.71,97s23.76,10.57,23.76,25.93S994.05,148.87,980.71,148.87Z"/><path d="M1134.54,81.43c-12.59,0-21.57,6.37-26.92,16.64-3.91-10.71-13.48-16.64-25.64-16.64-11.44,0-19.25,5.35-24.76,14.47V83.17h-17.53v79.61h17.53V121.52c0-14.47,6.52-24.46,19.4-24.46,11,0,15.78,6.23,15.78,18.1v47.62h17.53l-.14-41.26c0-14.47,5.62-24.46,18.5-24.46,11,0,16.82,6.23,16.82,18.1v47.62h17.53v-51.1C1162.64,92.72,1151.33,81.43,1134.54,81.43Z"/><rect x="451.9" y="49.02" width="17.54" height="114.2"/><path d="M561.13,92.52a33,33,0,0,0-12-8,45.3,45.3,0,0,0-15.16-2.7c-23.68-.71-41.62,14.25-41.62,41.61S512.84,165,534.59,165q22.11,0,33.75-15.73l-13.11-10.48a23.26,23.26,0,0,1-8.35,7.45A26.29,26.29,0,0,1,534.42,149c-14.17,0-23-9.9-23.69-19.34h61c.08-1.09.17-3.7.17-5.24a54.82,54.82,0,0,0-2.87-18.6A37.18,37.18,0,0,0,561.13,92.52Zm-50.4,23c1-11.29,8.49-19,21.78-19,11.78,0,19.87,7.72,20.84,19Z"/></g></g></svg>